<svg xmlns="http://www.w3.org/2000/svg" width="148" height="44" viewBox="0 0 148 44" fill="none"><path d="M12.4815 4.75637C12.4737 4.1302 12.5911 3.5088 12.827 2.92869C13.0628 2.34859 13.4123 1.82149 13.8548 1.37838C14.2973 0.935274 14.8239 0.585102 15.4036 0.348439C15.9834 0.111777 16.6047 -0.00659998 17.2308 0.000283878C17.8567 -0.00323905 18.4772 0.116816 19.0566 0.353556C19.6359 0.590296 20.1629 0.939068 20.6073 1.37988C21.0516 1.82069 21.4045 2.34487 21.6459 2.92237C21.8872 3.49986 22.0122 4.11933 22.0137 4.74522C22.0281 5.37975 21.9157 6.01082 21.6831 6.60132C21.4503 7.19183 21.1021 7.72996 20.6587 8.18407C20.2153 8.63823 19.6857 8.99924 19.1009 9.24601C18.5161 9.49273 17.8879 9.62023 17.2533 9.62098C16.6185 9.62167 15.9901 9.49569 15.4047 9.25031C14.8193 9.00493 14.2889 8.64515 13.8444 8.19207C13.4 7.73898 13.0505 7.20165 12.8164 6.61168C12.5823 6.02171 12.4685 5.39096 12.4815 4.75637Z" fill="#20347B"></path><path d="M3.65298 12.5405C3.65523 11.6377 3.92551 10.7559 4.42954 10.007C4.93358 9.25814 5.6487 8.67574 6.48415 8.33378C7.31961 7.99181 8.2378 7.90569 9.12225 8.08625C10.0067 8.26681 10.8177 8.706 11.4523 9.34807C12.0868 9.99014 12.5164 10.8062 12.6865 11.6928C12.8567 12.5794 12.7597 13.4964 12.4079 14.3278C12.0562 15.1592 11.4654 15.8674 10.7106 16.3626C9.95582 16.8577 9.07095 17.1176 8.16826 17.1092C7.56992 17.1123 6.977 16.9958 6.42433 16.7666C5.8716 16.5374 5.37022 16.2001 4.94964 15.7745C4.52905 15.349 4.1977 14.8437 3.97503 14.2883C3.75237 13.7329 3.64288 13.1387 3.65298 12.5405Z" fill="#20347B"></path><path d="M4.35943 27.1444C3.78323 27.145 3.21262 27.0313 2.68069 26.8098C2.14876 26.5883 1.66608 26.2634 1.26062 25.854C0.855152 25.4446 0.534965 24.9588 0.318616 24.4248C0.102267 23.8907 -0.00594433 23.3191 0.000251804 22.7429C0.0325519 21.5965 0.512595 20.5084 1.33752 19.7116C2.16244 18.9149 3.26662 18.473 4.41345 18.4806C5.56025 18.4881 6.65852 18.9446 7.47283 19.7522C8.28715 20.5597 8.75274 21.6541 8.76991 22.8008C8.77028 23.377 8.65594 23.9475 8.43358 24.479C8.21128 25.0105 7.8853 25.4925 7.47482 25.8968C7.06428 26.301 6.57739 26.6196 6.04253 26.8338C5.50767 27.048 4.93553 27.1536 4.35943 27.1444Z" fill="#65328F"></path><path d="M3.63483 33.8192C3.6289 32.7131 4.06245 31.65 4.84017 30.8635C5.61791 30.077 6.6761 29.6315 7.7822 29.625C8.89158 29.625 9.95556 30.0657 10.74 30.8502C11.5245 31.6347 11.9652 32.6986 11.9652 33.8081C11.9652 34.9174 11.5245 35.9814 10.74 36.7659C9.95556 37.5504 8.89158 37.9911 7.7822 37.9911C7.23554 37.9908 6.6944 37.8825 6.18974 37.6725C5.68509 37.4624 5.22689 37.1547 4.84152 36.767C4.45614 36.3794 4.15114 35.9194 3.94406 35.4135C3.73698 34.9076 3.63189 34.3658 3.63483 33.8192Z" fill="#65328F"></path><path d="M20.3713 40.0167C20.3713 40.7965 20.1402 41.5588 19.7072 42.2073C19.2742 42.8557 18.6586 43.3613 17.9384 43.6601C17.2181 43.9589 16.4255 44.0376 15.6606 43.8861C14.8957 43.7346 14.1929 43.3598 13.6409 42.8091C13.0889 42.2583 12.7125 41.5563 12.5593 40.7917C12.4061 40.0272 12.4829 39.2344 12.7802 38.5135C13.0773 37.7926 13.5815 37.1759 14.229 36.7414C14.8765 36.3069 15.6382 36.0741 16.4179 36.0723C16.937 36.0703 17.4512 36.1708 17.9312 36.3682C18.4112 36.5656 18.8475 36.8559 19.2149 37.2225C19.5823 37.589 19.8736 38.0246 20.072 38.5042C20.2705 38.9837 20.3722 39.4978 20.3713 40.0167Z" fill="#2B94AB"></path><path d="M22.9203 40.4842C22.9066 39.5407 23.2673 38.6301 23.9233 37.9519C24.5795 37.2736 25.4775 36.8829 26.4211 36.8653C26.8895 36.8618 27.3542 36.9506 27.7884 37.1266C28.2225 37.3027 28.6178 37.5626 28.9516 37.8913C29.2853 38.2201 29.5511 38.6115 29.7336 39.043C29.9161 39.4745 30.0119 39.9377 30.0154 40.4062C30.0189 40.8747 29.9301 41.3393 29.7541 41.7735C29.578 42.2077 29.3182 42.603 28.9894 42.9367C28.6606 43.2705 28.2693 43.5362 27.8378 43.7188C27.4063 43.9013 26.943 43.9971 26.4745 44.0006C25.5395 43.9972 24.6431 43.6268 23.9784 42.9691C23.3137 42.3115 22.9337 41.4192 22.9203 40.4842Z" fill="#2B94AB"></path><path d="M32.1353 35.2349C32.1279 34.8116 32.204 34.3909 32.3593 33.997C32.5145 33.6031 32.7459 33.2437 33.0402 32.9393C33.3345 32.6349 33.6858 32.3915 34.0742 32.2229C34.4626 32.0545 34.8804 31.9641 35.3038 31.9571C35.7283 31.9541 36.1494 32.0346 36.5428 32.1943C36.9362 32.3539 37.2944 32.5895 37.5968 32.8875C37.8992 33.1856 38.1399 33.5403 38.3052 33.9314C38.4705 34.3225 38.5573 34.7423 38.5603 35.1669C38.5634 35.5914 38.4828 36.0125 38.3231 36.4059C38.1635 36.7994 37.928 37.1575 37.6299 37.4599C37.3319 37.7623 36.9771 38.003 36.5861 38.1683C36.195 38.3337 35.7751 38.4203 35.3506 38.4234C34.5028 38.4223 33.6897 38.0868 33.0877 37.4899C32.4857 36.8929 32.1435 36.0826 32.1353 35.2349Z" fill="#FCC231"></path><path d="M37.5102 27.1885C37.497 26.4148 37.7917 25.6675 38.3294 25.111C38.8671 24.5544 39.6039 24.2342 40.3776 24.2208C41.1529 24.2151 41.8987 24.5177 42.4509 25.062C43.003 25.6062 43.3164 26.3475 43.322 27.1228C43.3277 27.8981 43.025 28.6439 42.4808 29.1961C41.9366 29.7482 41.1953 30.0616 40.42 30.0672C39.6537 30.0672 38.9182 29.7649 38.3734 29.226C37.8286 28.687 37.5184 27.9549 37.5102 27.1885Z" fill="#FCC231"></path><path d="M41.1377 15.2592C41.5276 15.2499 41.9155 15.3188 42.2783 15.4618C42.6412 15.6049 42.9717 15.8192 43.2503 16.0922C43.5289 16.3651 43.75 16.6912 43.9005 17.051C44.0509 17.4108 44.1278 17.7971 44.1265 18.1872C44.1251 18.5772 44.0456 18.963 43.8926 19.3218C43.7397 19.6806 43.5164 20.0051 43.2359 20.2761C42.9554 20.5471 42.6235 20.7592 42.2596 20.8998C41.8958 21.0403 41.5075 21.1066 41.1177 21.0945C40.7277 21.1039 40.3399 21.0349 39.9771 20.8919C39.6142 20.7488 39.2837 20.5345 39.0051 20.2616C38.7265 19.9886 38.5054 19.6626 38.3549 19.3028C38.2044 18.9429 38.1276 18.5566 38.1289 18.1665C38.1303 17.7765 38.2097 17.3907 38.3627 17.0319C38.5157 16.6731 38.739 16.3487 39.0195 16.0776C39.3 15.8066 39.6319 15.5946 39.9957 15.454C40.3596 15.3134 40.7479 15.2472 41.1377 15.2592Z" fill="#EE7D35"></path><path d="M40.417 10.9708C40.4178 11.6345 40.1587 12.2721 39.6953 12.7471C39.2319 13.2222 38.601 13.497 37.9375 13.5128C37.2623 13.5041 36.6163 13.2364 36.1328 12.765C35.6494 12.2936 35.3655 11.6545 35.3398 10.9797C35.3451 10.3063 35.6165 9.66228 36.0948 9.18821C36.5731 8.71409 37.2194 8.44837 37.8929 8.44896C38.2276 8.43646 38.5611 8.49312 38.8729 8.61541C39.1846 8.7377 39.4678 8.92298 39.7046 9.15966C39.9415 9.39635 40.1271 9.67934 40.2497 9.99098C40.3722 10.3026 40.4292 10.6362 40.417 10.9708Z" fill="#EE7D35"></path><path d="M32.3157 3.21186C32.5984 3.20866 32.8789 3.26288 33.1401 3.37124C33.4013 3.4796 33.6377 3.63983 33.8351 3.84226C34.0326 4.04468 34.1868 4.28507 34.2886 4.54887C34.3904 4.81267 34.4376 5.09439 34.4273 5.37694C34.4168 5.94678 34.1832 6.48969 33.7767 6.88912C33.3701 7.28855 32.8232 7.51258 32.2533 7.51306C31.6833 7.48913 31.1441 7.24767 30.7468 6.83826C30.3494 6.4289 30.1241 5.88277 30.1172 5.31229C30.1218 5.02946 30.1825 4.75036 30.2959 4.49118C30.4092 4.23201 30.5729 3.99792 30.7774 3.80252C30.9819 3.60711 31.2232 3.45427 31.4873 3.35288C31.7514 3.25149 32.033 3.20355 32.3157 3.21186Z" fill="#C84854"></path><path d="M25.6729 1.20815C26.0566 1.20952 26.4313 1.32492 26.7492 1.53971C27.0672 1.75448 27.3142 2.05895 27.4588 2.41441C27.6033 2.76986 27.639 3.16028 27.5612 3.53604C27.4833 3.91179 27.2956 4.25595 27.0218 4.52476C26.7479 4.79357 26.4004 4.97491 26.0232 5.04574C25.6461 5.11657 25.2564 5.07369 24.9037 4.92256C24.5509 4.77143 24.2511 4.51885 24.0422 4.19694C23.8334 3.87502 23.725 3.49829 23.7307 3.11459C23.7266 2.86008 23.7744 2.60739 23.871 2.37189C23.9676 2.13639 24.1111 1.923 24.2927 1.74467C24.4744 1.56636 24.6904 1.42684 24.9277 1.33461C25.1649 1.24238 25.4185 1.19935 25.6729 1.20815Z" fill="#C84854"></path><path d="M68.81 23.8593C70.5206 26.0712 72.0767 28.3188 73.3167 30.8942C72.4448 30.8942 71.6732 30.912 70.9064 30.8786C70.7744 30.8786 70.6253 30.6712 70.5314 30.5285C69.2607 28.6169 67.9971 26.7023 66.741 24.7846C66.6465 24.6181 66.5043 24.4841 66.3321 24.4001C66.1604 24.3161 65.9672 24.2861 65.7778 24.3142C64.857 24.3699 63.9293 24.332 62.9506 24.332V30.8451H60.5891C60.5778 30.6423 60.5601 30.446 60.5601 30.2475C60.5601 25.1191 60.5601 20.0085 60.5488 14.889C60.5488 14.4296 60.6561 14.2379 61.1375 14.1777C63.6148 13.8566 66.0879 13.6448 68.5358 14.336C71.8095 15.2591 73.3012 18.6461 71.7333 21.5493C71.1071 22.7132 70.0881 23.3844 68.81 23.8593ZM62.9527 22.4947C64.6091 22.3364 66.2081 22.3007 67.7578 22.0019C69.169 21.7321 69.7646 20.7889 69.8204 19.295C69.8762 17.9571 69.2248 16.8846 67.9987 16.3963C66.36 15.7541 64.6542 16.015 62.9527 16.0105V22.4947Z" fill="white"></path><path d="M141.562 23.9476C143.863 25.9277 145.703 28.2511 147.359 30.8956C146.447 30.8956 145.658 30.9179 144.873 30.8755C144.711 30.8755 144.532 30.628 144.427 30.4585C143.089 28.4852 141.589 26.6679 139.693 25.183C139.578 25.0938 139.455 25.0157 139.232 24.8619V30.8644H136.969V12.4465L139.198 12.0586V23.3768C140.153 22.4649 141.087 21.6064 141.979 20.7011C142.67 20.0054 143.299 19.2496 143.97 18.5316C144.084 18.3944 144.241 18.3007 144.416 18.2662C145.204 18.2305 145.994 18.2686 146.775 18.3799L141.562 23.9476Z" fill="white"></path><path d="M85.9846 25.1991H77.4112C77.342 27.4735 78.7601 29.0455 80.9343 29.1413C81.582 29.1849 82.2329 29.1737 82.8789 29.1079C83.5335 28.9946 84.1823 28.8458 84.8208 28.662C84.912 29.1837 85.0215 29.7211 85.0928 30.2607C85.088 30.328 85.0671 30.393 85.0306 30.4499C84.9946 30.5067 84.9447 30.5536 84.8857 30.5862C82.8521 31.3689 78.8921 31.6855 76.8295 29.6542C75.6678 28.5081 75.1457 27.1101 75.0186 25.5336C74.8291 23.1879 75.2418 21.025 77.0522 19.3304C79.155 17.3548 83.5475 17.3749 85.1288 20.2401C85.976 21.7653 86.0608 23.4332 85.9846 25.1991ZM83.6011 23.3262C83.811 21.5557 82.5307 19.9815 80.9252 19.8834C78.8605 19.7563 77.445 21.5758 77.4718 23.3262H83.6011Z" fill="white"></path><path d="M107.191 24.5482C107.019 26.5974 106.473 28.4057 104.934 29.8216C102.571 31.9979 97.7279 31.7637 95.9797 28.0935C94.8647 25.7412 94.8647 23.3464 96.0039 21.023C97.0588 18.8846 98.9207 17.9013 101.264 17.9637C103.768 18.0217 105.563 19.2637 106.477 21.6027C106.841 22.5347 106.961 23.5627 107.191 24.5482ZM97.4559 24.5772C97.6163 25.3688 97.692 26.1916 97.9576 26.9475C98.4233 28.2853 99.3779 29.0902 100.836 29.1928C102.1 29.282 103.122 28.8405 103.846 27.7769C104.996 26.089 104.961 22.9495 103.77 21.2883C103.492 20.9059 103.134 20.5879 102.722 20.356C102.309 20.124 101.852 19.9835 101.38 19.9439C100.909 19.9043 100.434 19.9667 99.9896 20.1267C99.5442 20.2867 99.1386 20.5407 98.8 20.8713C97.788 21.8926 97.5648 23.1903 97.4559 24.5772Z" fill="white"></path><path d="M125.245 20.2475V30.8678H123.015C123.015 30.6895 122.988 30.5133 122.988 30.3371C122.988 26.6112 122.988 22.8853 122.988 19.1594C122.988 18.7536 123.091 18.5863 123.51 18.5016C125.37 18.1226 127.245 17.8104 129.138 18.0846C131.642 18.4503 133.02 19.9688 133.118 22.5084C133.221 25.1552 133.188 27.8086 133.225 30.4575C133.225 30.7987 133.114 30.9236 132.779 30.9035C132.39 30.8723 132 30.8723 131.611 30.9035C131.085 30.9593 130.915 30.7876 130.922 30.2346C130.944 27.9736 130.922 25.7126 130.904 23.4516C130.881 22.9711 130.815 22.4936 130.708 22.0246C130.485 20.8941 129.789 20.223 128.659 20.0602C127.528 19.8975 126.407 20.0357 125.245 20.2475Z" fill="white"></path><path d="M114.315 29.2838C114.229 29.8301 114.175 30.3295 114.057 30.8112C114.024 30.8917 113.971 30.9626 113.904 31.0179C113.836 31.0731 113.756 31.1109 113.671 31.1278C111.442 31.1702 110.184 29.975 110.177 27.7386C110.161 22.7706 110.177 17.8028 110.177 12.8326C110.177 12.7234 110.177 12.6096 110.197 12.4536L112.427 12.0723V26.7664C112.427 26.9314 112.427 27.0986 112.427 27.2658C112.463 28.5747 112.746 28.9137 114.019 29.1857C114.097 29.1946 114.182 29.2325 114.315 29.2838Z" fill="white"></path><path d="M93.3618 29.2612C93.248 29.9123 93.1386 30.5098 93.0452 31.0963C90.3333 31.1386 89.2253 29.9546 89.221 27.8029C89.2076 22.777 89.2076 17.7504 89.221 12.723C89.221 12.6517 89.221 12.5781 89.2457 12.4443L91.4752 12.0586V12.7832C91.4752 17.5133 91.4752 22.2427 91.4752 26.9712C91.4666 27.2309 91.4746 27.4908 91.4998 27.7494C91.6115 28.6212 91.9613 28.978 92.8375 29.1452C92.9781 29.1742 93.1407 29.2121 93.3618 29.2612Z" fill="white"></path><path d="M116.896 18.2852H119.066V30.8588H116.896V18.2852Z" fill="white"></path><path d="M116.524 14.5142C116.513 14.3198 116.542 14.1252 116.609 13.9425C116.677 13.7599 116.781 13.5931 116.916 13.4525C117.05 13.312 117.213 13.2006 117.392 13.1255C117.572 13.0504 117.765 13.013 117.96 13.0158C118.153 13.014 118.346 13.0509 118.525 13.1242C118.704 13.1976 118.867 13.3059 119.003 13.4429C119.14 13.58 119.249 13.7429 119.322 13.9223C119.395 14.1016 119.431 14.2938 119.429 14.4874C119.443 14.6862 119.414 14.8857 119.346 15.0728C119.277 15.26 119.17 15.4306 119.031 15.5736C118.892 15.7166 118.725 15.8288 118.54 15.9029C118.355 15.977 118.157 16.0113 117.958 16.0037C117.101 15.9947 116.522 15.3927 116.524 14.5142Z" fill="white"></path></svg>